M48
; DRILL file {KiCad 5.1.5-52549c5~86~ubuntu19.10.1} date wto, 21 kwi 2020, 11:36:11
; FORMAT={2:4/ absolute / inch / suppress leading zeros}
; #@! TF.CreationDate,2020-04-21T11:36:11+02:00
; #@! TF.GenerationSoftware,Kicad,Pcbnew,5.1.5-52549c5~86~ubuntu19.10.1
FMAT,2
INCH,TZ
T1C0.0197
%
G90
G05
T1
X6225Y-5525
X6650Y-10900
X6650Y-11350
X7075Y-9125
X7925Y-8600
X8700Y-11350
X9150Y-10200
X9250Y-11350
X11000Y-11350
X11700Y-9744
X12325Y-11350
X14300Y-9975
X14750Y-10475
X14750Y-11050
X15250Y-9975
X15300Y-5850
X15300Y-6525
X15300Y-7200
X15300Y-7875
X15300Y-8550
X15550Y-9525
T0
M30
