M48
INCH,TZ
T1C0.0197
%
G90
G05
T1
X5990Y-6320
X6680Y-10900
X6680Y-11470
X7030Y-6360
X7100Y-8920
X7530Y-6230
X8040Y-8850
X8520Y-7030
X8760Y-10520
X8760Y-11590
X9530Y-11370
X10480Y-5410
X10480Y-7840
X10980Y-5600
X11020Y-9665
X12300Y-11340
X14700Y-9680
X14700Y-11510
X15300Y-5850
X15300Y-7200
X15300Y-8550
X16140Y-9680
X16140Y-11510
T0
M30
